<svg xmlns="http://www.w3.org/2000/svg" xmlns:xlink="http://www.w3.org/1999/xlink" width="500" zoomAndPan="magnify" viewBox="0 0 375 374.999991" height="500" preserveAspectRatio="xMidYMid meet" version="1.0"><defs><g/><clipPath id="92868a7d06"><path d="M 130.476562 119 L 230.976562 119 L 230.976562 204 L 130.476562 204 Z M 130.476562 119 " clip-rule="nonzero"/></clipPath></defs><g clip-path="url(#92868a7d06)"><path fill="#12a36f" d="M 223.917969 120.085938 L 132.601562 155.746094 C 132.277344 155.871094 131.984375 156.042969 131.714844 156.265625 C 131.445312 156.484375 131.21875 156.738281 131.03125 157.027344 C 130.839844 157.320312 130.699219 157.632812 130.609375 157.964844 C 130.519531 158.300781 130.480469 158.640625 130.496094 158.984375 C 130.507812 159.332031 130.578125 159.667969 130.695312 159.992188 C 130.816406 160.316406 130.980469 160.617188 131.195312 160.890625 C 131.40625 161.164062 131.65625 161.398438 131.941406 161.59375 C 132.226562 161.789062 132.535156 161.9375 132.867188 162.039062 L 150.089844 167.066406 C 151.011719 167.335938 151.886719 167.714844 152.714844 168.203125 C 153.542969 168.691406 154.300781 169.269531 154.984375 169.941406 C 155.671875 170.617188 156.265625 171.363281 156.765625 172.179688 C 157.269531 173 157.664062 173.867188 157.953125 174.785156 L 164.746094 196.320312 C 164.847656 196.652344 164.988281 196.960938 165.171875 197.253906 C 165.355469 197.546875 165.574219 197.808594 165.824219 198.042969 C 166.078125 198.28125 166.355469 198.480469 166.660156 198.640625 C 166.964844 198.804688 167.28125 198.925781 167.617188 199.007812 C 167.953125 199.085938 168.292969 199.125 168.636719 199.113281 C 168.984375 199.105469 169.320312 199.054688 169.652344 198.957031 C 169.984375 198.859375 170.296875 198.722656 170.589844 198.546875 C 170.886719 198.367188 171.15625 198.15625 171.394531 197.910156 L 180.738281 188.371094 C 181.105469 187.992188 181.527344 187.691406 182.003906 187.464844 C 182.484375 187.242188 182.984375 187.109375 183.511719 187.066406 C 184.035156 187.023438 184.554688 187.074219 185.0625 187.21875 C 185.570312 187.363281 186.035156 187.59375 186.460938 187.90625 L 206.945312 202.9375 C 207.273438 203.175781 207.628906 203.367188 208.011719 203.519531 C 208.390625 203.667969 208.78125 203.769531 209.1875 203.824219 C 209.589844 203.875 209.996094 203.878906 210.402344 203.832031 C 210.804688 203.78125 211.199219 203.683594 211.582031 203.539062 C 211.960938 203.394531 212.320312 203.203125 212.652344 202.96875 C 212.984375 202.734375 213.285156 202.460938 213.550781 202.152344 C 213.816406 201.84375 214.042969 201.503906 214.222656 201.140625 C 214.40625 200.773438 214.539062 200.394531 214.628906 199.992188 L 230.210938 125.453125 C 230.394531 124.609375 230.347656 123.777344 230.074219 122.957031 C 229.796875 122.136719 229.328125 121.445312 228.671875 120.882812 C 228.011719 120.324219 227.257812 119.972656 226.40625 119.828125 C 225.550781 119.683594 224.722656 119.769531 223.917969 120.085938 Z M 212.558594 136.132812 L 181.753906 163.429688 C 180.878906 164.183594 180.171875 165.074219 179.628906 166.09375 C 179.089844 167.117188 178.75 168.199219 178.613281 169.347656 C 178.582031 169.585938 178.515625 169.8125 178.40625 170.027344 C 178.296875 170.242188 178.15625 170.433594 177.984375 170.597656 C 177.8125 170.765625 177.617188 170.898438 177.398438 171 C 177.179688 171.101562 176.953125 171.164062 176.710938 171.1875 C 176.472656 171.207031 176.238281 171.191406 176.003906 171.132812 C 175.769531 171.078125 175.550781 170.980469 175.351562 170.851562 C 175.148438 170.71875 174.976562 170.558594 174.828125 170.367188 C 174.683594 170.175781 174.570312 169.96875 174.496094 169.738281 L 173.089844 165.230469 C 172.84375 164.4375 172.734375 163.628906 172.757812 162.800781 C 172.78125 161.972656 172.9375 161.167969 173.230469 160.394531 C 173.519531 159.617188 173.925781 158.910156 174.453125 158.269531 C 174.976562 157.628906 175.59375 157.089844 176.296875 156.652344 L 211.527344 134.832031 C 211.710938 134.75 211.902344 134.738281 212.097656 134.792969 C 212.292969 134.847656 212.449219 134.957031 212.566406 135.125 C 212.683594 135.292969 212.734375 135.476562 212.71875 135.679688 C 212.707031 135.882812 212.628906 136.054688 212.488281 136.203125 Z M 212.558594 136.132812 " fill-opacity="1" fill-rule="nonzero"/></g><g fill="#12a36f" fill-opacity="1"><g transform="translate(38.36426, 259.197185)"><g><path d="M 3.0625 -33.125 L 0.34375 -33.125 L 3.0625 -45.375 L 15.3125 -45.375 L 15.3125 -28.09375 L 22.25 -45.375 L 34.765625 -45.375 L 25.3125 -23.328125 L 36.0625 0 L 22.796875 0 L 15.3125 -17.34375 L 15.3125 0 L 3.0625 0 Z M 3.0625 -33.125 "/></g></g></g><g fill="#12a36f" fill-opacity="1"><g transform="translate(73.390832, 259.197185)"><g><path d="M 14.28125 -0.140625 C 12.195312 -0.222656 10.597656 -0.4375 9.484375 -0.78125 C 8.378906 -1.125 7.328125 -1.75 6.328125 -2.65625 C 4.648438 -4.144531 3.378906 -6.09375 2.515625 -8.5 C 1.648438 -10.90625 1.21875 -13.671875 1.21875 -16.796875 C 1.21875 -19.296875 1.515625 -21.566406 2.109375 -23.609375 C 2.703125 -25.648438 3.539062 -27.394531 4.625 -28.84375 C 5.71875 -30.289062 7.046875 -31.398438 8.609375 -32.171875 C 10.171875 -32.941406 11.90625 -33.328125 13.8125 -33.328125 C 14.851562 -33.328125 15.789062 -33.210938 16.625 -32.984375 C 17.46875 -32.765625 18.34375 -32.40625 19.25 -31.90625 L 19.25 -33.125 L 30 -33.125 L 30 -10.890625 L 32.390625 -10.890625 L 30 0 L 18.84375 0 L 18.84375 -10 L 16.59375 0 Z M 18.84375 -17.28125 C 18.84375 -18.09375 18.832031 -18.757812 18.8125 -19.28125 C 18.789062 -19.800781 18.742188 -20.234375 18.671875 -20.578125 C 18.609375 -20.921875 18.53125 -21.191406 18.4375 -21.390625 C 18.34375 -21.597656 18.207031 -21.789062 18.03125 -21.96875 C 17.53125 -22.519531 16.914062 -22.796875 16.1875 -22.796875 C 15.144531 -22.796875 14.304688 -22.257812 13.671875 -21.1875 C 13.035156 -20.125 12.71875 -18.734375 12.71875 -17.015625 C 12.71875 -12.878906 14.328125 -10.8125 17.546875 -10.8125 C 17.640625 -10.8125 17.820312 -10.8125 18.09375 -10.8125 C 18.363281 -10.8125 18.613281 -10.835938 18.84375 -10.890625 Z M 18.84375 -17.28125 "/></g></g></g><g fill="#12a36f" fill-opacity="1"><g transform="translate(106.104968, 259.197185)"><g><path d="M 2.859375 -21.96875 L 0.34375 -21.96875 L 2.859375 -33.125 L 14.015625 -33.125 L 14.015625 -30.140625 C 14.691406 -31.222656 15.515625 -32.015625 16.484375 -32.515625 C 17.460938 -33.015625 18.703125 -33.265625 20.203125 -33.265625 C 20.429688 -33.265625 20.65625 -33.265625 20.875 -33.265625 C 21.101562 -33.265625 21.378906 -33.21875 21.703125 -33.125 L 19.25 -21.96875 C 18.570312 -22.332031 17.984375 -22.515625 17.484375 -22.515625 C 16.941406 -22.515625 16.421875 -22.390625 15.921875 -22.140625 C 15.421875 -21.890625 15.035156 -21.5625 14.765625 -21.15625 C 14.628906 -20.925781 14.503906 -20.675781 14.390625 -20.40625 C 14.273438 -20.132812 14.191406 -19.78125 14.140625 -19.34375 C 14.097656 -18.914062 14.066406 -18.375 14.046875 -17.71875 C 14.023438 -17.0625 14.015625 -16.234375 14.015625 -15.234375 L 14.015625 0 L 2.859375 0 Z M 2.859375 -21.96875 "/></g></g></g><g fill="#12a36f" fill-opacity="1"><g transform="translate(127.460972, 259.197185)"><g><path d="M 14.28125 -0.140625 C 12.195312 -0.222656 10.597656 -0.4375 9.484375 -0.78125 C 8.378906 -1.125 7.328125 -1.75 6.328125 -2.65625 C 4.648438 -4.144531 3.378906 -6.09375 2.515625 -8.5 C 1.648438 -10.90625 1.21875 -13.671875 1.21875 -16.796875 C 1.21875 -19.296875 1.515625 -21.566406 2.109375 -23.609375 C 2.703125 -25.648438 3.539062 -27.394531 4.625 -28.84375 C 5.71875 -30.289062 7.046875 -31.398438 8.609375 -32.171875 C 10.171875 -32.941406 11.90625 -33.328125 13.8125 -33.328125 C 14.851562 -33.328125 15.789062 -33.210938 16.625 -32.984375 C 17.46875 -32.765625 18.34375 -32.40625 19.25 -31.90625 L 19.25 -33.125 L 30 -33.125 L 30 -10.890625 L 32.390625 -10.890625 L 30 0 L 18.84375 0 L 18.84375 -10 L 16.59375 0 Z M 18.84375 -17.28125 C 18.84375 -18.09375 18.832031 -18.757812 18.8125 -19.28125 C 18.789062 -19.800781 18.742188 -20.234375 18.671875 -20.578125 C 18.609375 -20.921875 18.53125 -21.191406 18.4375 -21.390625 C 18.34375 -21.597656 18.207031 -21.789062 18.03125 -21.96875 C 17.53125 -22.519531 16.914062 -22.796875 16.1875 -22.796875 C 15.144531 -22.796875 14.304688 -22.257812 13.671875 -21.1875 C 13.035156 -20.125 12.71875 -18.734375 12.71875 -17.015625 C 12.71875 -12.878906 14.328125 -10.8125 17.546875 -10.8125 C 17.640625 -10.8125 17.820312 -10.8125 18.09375 -10.8125 C 18.363281 -10.8125 18.613281 -10.835938 18.84375 -10.890625 Z M 18.84375 -17.28125 "/></g></g></g><g fill="#12a36f" fill-opacity="1"><g transform="translate(160.175108, 259.197185)"><g><path d="M -0.609375 -33.125 L 11.5 -33.125 L 14.5625 -15.171875 L 17.546875 -33.125 L 29.65625 -33.125 L 21.296875 0 L 7.6875 0 Z M -0.609375 -33.125 "/></g></g></g><g fill="#12a36f" fill-opacity="1"><g transform="translate(189.216563, 259.197185)"><g><path d="M 14.28125 -0.140625 C 12.195312 -0.222656 10.597656 -0.4375 9.484375 -0.78125 C 8.378906 -1.125 7.328125 -1.75 6.328125 -2.65625 C 4.648438 -4.144531 3.378906 -6.09375 2.515625 -8.5 C 1.648438 -10.90625 1.21875 -13.671875 1.21875 -16.796875 C 1.21875 -19.296875 1.515625 -21.566406 2.109375 -23.609375 C 2.703125 -25.648438 3.539062 -27.394531 4.625 -28.84375 C 5.71875 -30.289062 7.046875 -31.398438 8.609375 -32.171875 C 10.171875 -32.941406 11.90625 -33.328125 13.8125 -33.328125 C 14.851562 -33.328125 15.789062 -33.210938 16.625 -32.984375 C 17.46875 -32.765625 18.34375 -32.40625 19.25 -31.90625 L 19.25 -33.125 L 30 -33.125 L 30 -10.890625 L 32.390625 -10.890625 L 30 0 L 18.84375 0 L 18.84375 -10 L 16.59375 0 Z M 18.84375 -17.28125 C 18.84375 -18.09375 18.832031 -18.757812 18.8125 -19.28125 C 18.789062 -19.800781 18.742188 -20.234375 18.671875 -20.578125 C 18.609375 -20.921875 18.53125 -21.191406 18.4375 -21.390625 C 18.34375 -21.597656 18.207031 -21.789062 18.03125 -21.96875 C 17.53125 -22.519531 16.914062 -22.796875 16.1875 -22.796875 C 15.144531 -22.796875 14.304688 -22.257812 13.671875 -21.1875 C 13.035156 -20.125 12.71875 -18.734375 12.71875 -17.015625 C 12.71875 -12.878906 14.328125 -10.8125 17.546875 -10.8125 C 17.640625 -10.8125 17.820312 -10.8125 18.09375 -10.8125 C 18.363281 -10.8125 18.613281 -10.835938 18.84375 -10.890625 Z M 18.84375 -17.28125 "/></g></g></g><g fill="#12a36f" fill-opacity="1"><g transform="translate(221.930699, 259.197185)"><g><path d="M 2.859375 -21.96875 L 0.34375 -21.96875 L 2.859375 -33.125 L 14.015625 -33.125 L 14.015625 -23.125 L 16.265625 -33.125 C 17.617188 -33.125 18.679688 -33.125 19.453125 -33.125 C 20.222656 -33.125 20.820312 -33.113281 21.25 -33.09375 C 21.6875 -33.070312 22.039062 -33.035156 22.3125 -32.984375 C 22.582031 -32.941406 22.898438 -32.878906 23.265625 -32.796875 C 24.222656 -32.566406 25.117188 -32.132812 25.953125 -31.5 C 26.796875 -30.863281 27.460938 -30.070312 27.953125 -29.125 C 28.234375 -28.664062 28.453125 -28.234375 28.609375 -27.828125 C 28.765625 -27.421875 28.875 -26.910156 28.9375 -26.296875 C 29.007812 -25.679688 29.054688 -24.875 29.078125 -23.875 C 29.109375 -22.875 29.125 -21.535156 29.125 -19.859375 L 29.125 -10.890625 L 31.5 -10.890625 L 29.125 0 L 17.953125 0 L 17.953125 -14.6875 C 17.953125 -15.875 17.953125 -16.804688 17.953125 -17.484375 C 17.953125 -18.160156 17.941406 -18.703125 17.921875 -19.109375 C 17.898438 -19.523438 17.851562 -19.84375 17.78125 -20.0625 C 17.71875 -20.289062 17.640625 -20.519531 17.546875 -20.75 C 17.097656 -21.613281 16.171875 -22.046875 14.765625 -22.046875 C 14.671875 -22.046875 14.566406 -22.046875 14.453125 -22.046875 C 14.335938 -22.046875 14.191406 -22.019531 14.015625 -21.96875 L 14.015625 0 L 2.859375 0 Z M 2.859375 -21.96875 "/></g></g></g><path stroke-linecap="butt" transform="matrix(0.75, 0, 0, 0.75, 257.812459, 190.85344)" fill="none" stroke-linejoin="miter" d="M 30.755265 53.002708 L 52.411517 53.002708 C 52.354225 56.148542 52.281308 58.81 52.192767 60.9975 C 52.104225 63.164167 51.968808 65.070417 51.791725 66.711042 C 51.614642 68.330834 51.375058 69.778751 51.062558 71.049584 C 50.765683 72.320418 50.406308 73.586043 49.979225 74.856876 C 49.062558 77.398543 47.817766 79.716252 46.234433 81.810002 C 44.671933 83.893335 42.890683 85.685002 40.901099 87.19021 C 38.906308 88.695419 36.729224 89.862086 34.364641 90.690211 C 32.02089 91.502711 29.604224 91.908961 27.125057 91.908961 C 23.375057 91.908961 19.95839 91.138127 16.875056 89.606877 C 13.786514 88.054794 11.125056 85.90896 8.880264 83.15896 C 6.651097 80.398543 4.916722 77.101668 3.677139 73.263126 C 2.437555 69.424584 1.817763 65.211042 1.817763 60.617292 C 1.817763 56.148542 2.42193 52.018333 3.630264 48.242291 C 4.843805 44.461041 6.505264 41.184999 8.614639 38.408957 C 10.724014 35.61729 13.250056 33.455832 16.187556 31.919373 C 19.125056 30.372498 22.312556 29.596457 25.755265 29.596457 C 27.140682 29.596457 28.42714 29.721457 29.604224 29.971457 C 30.786515 30.21104 32.286515 30.658957 34.099016 31.325623 L 35.651099 29.330832 L 46.5261 37.388124 L 35.099016 51.362083 C 33.708391 49.429791 32.453182 48.086041 31.33339 47.330833 C 30.213599 46.580833 28.869849 46.205833 27.30214 46.205833 C 24.703182 46.205833 22.67714 47.455833 21.213598 49.96625 C 19.765681 52.476666 19.041723 55.9975 19.041723 60.52875 C 19.041723 65.429792 19.781306 69.211043 21.255265 71.867293 C 22.750056 74.523543 24.911515 75.851668 27.744848 75.851668 C 29.98964 75.851668 31.791724 75.054793 33.151099 73.461043 C 34.505266 71.851668 35.338599 69.596459 35.651099 66.685001 L 27.744848 66.685001 Z M 74.005268 45.914166 C 76.78131 45.914166 79.333394 46.476666 81.666727 47.596458 C 84.00006 48.721458 86.010477 50.31 87.692769 52.362083 C 89.390686 54.408958 90.703186 56.846458 91.630269 59.669375 C 92.578186 62.471459 93.052144 65.544376 93.052144 68.877709 C 93.052144 72.257918 92.578186 75.372501 91.630269 78.22146 C 90.703186 81.060002 89.390686 83.487085 87.692769 85.507919 C 86.010477 87.528752 83.96881 89.101669 81.578185 90.226669 C 79.18756 91.346461 76.572977 91.908961 73.739643 91.908961 C 71.010476 91.908961 68.505268 91.330836 66.234434 90.179794 C 63.974018 89.028752 61.994851 87.429794 60.296934 85.37771 C 58.614642 83.325627 57.302142 80.893335 56.359434 78.091251 C 55.427142 75.268335 54.9636 72.200626 54.9636 68.877709 C 54.9636 65.544376 55.427142 62.471459 56.359434 59.669375 C 57.302142 56.846458 58.614642 54.424583 60.296934 52.40375 C 61.994851 50.382916 64.005268 48.794375 66.322976 47.643333 C 68.656309 46.492291 71.21881 45.914166 74.005268 45.914166 Z M 74.005268 61.06 C 72.619851 61.06 71.557351 61.77875 70.817768 63.211042 C 70.09381 64.627709 69.734435 66.664167 69.734435 69.320418 C 69.734435 72.039168 70.09381 74.112085 70.817768 75.544376 C 71.557351 76.961043 72.619851 77.669376 74.005268 77.669376 C 75.395893 77.669376 76.447977 76.961043 77.171935 75.544376 C 77.895893 74.112085 78.260477 72.096459 78.260477 69.497501 C 78.260477 63.872501 76.838602 61.06 74.005268 61.06 Z M 74.005268 61.06 " stroke="#020218" stroke-width="2.437815" stroke-opacity="1" stroke-miterlimit="4"/><path stroke-linecap="butt" transform="matrix(0.75, 0, 0, 0.75, 257.812459, 190.85344)" fill="none" stroke-linejoin="miter" d="M 107.375062 73.304793 C 109.916729 73.304793 111.906312 74.153751 113.354229 75.851668 C 114.817771 77.549585 115.546938 79.84646 115.546938 82.742293 C 115.546938 85.648544 114.770896 87.950627 113.224021 89.648544 C 111.687562 91.330836 109.651104 92.174586 107.109437 92.174586 C 104.572979 92.174586 102.541728 91.330836 101.020895 89.648544 C 99.515687 87.950627 98.760478 85.705835 98.760478 82.919377 C 98.760478 80.023543 99.541728 77.700626 101.109437 75.94021 C 102.687562 74.185001 104.776104 73.304793 107.375062 73.304793 Z M 107.375062 73.304793 " stroke="#020218" stroke-width="2.437815" stroke-opacity="1" stroke-miterlimit="4"/></svg>